<?xml version="1.0" encoding="utf-8"?>
<!-- Generator: Adobe Illustrator 26.3.1, SVG Export Plug-In . SVG Version: 6.00 Build 0)  -->
<svg version="1.1" id="Layer_1" xmlns="http://www.w3.org/2000/svg" xmlns:xlink="http://www.w3.org/1999/xlink" x="0px" y="0px"
	 viewBox="0 0 818 618.2" style="enable-background:new 0 0 818 618.2;" xml:space="preserve">
<style type="text/css">
	.st0{fill:#FEB8B8;}
	.st1{fill:#E2E2E2;}
	.st2{fill:#FFFFFF;}
	.st3{fill:#CACACA;}
	.st4{fill:#2F2E41;}
	.st5{fill:#6C63FF;}
	.st6{fill:#FFB6B6;}
	.st7{fill:#DDDBDD;}
</style>
<path id="b901917b-4981-4312-adbf-d5b8f006e98e-37" class="st0" d="M384.4,518.9c0,0,10.4-17.1,23.8-7s38.1,27.1,38.1,27.1
	s5.1,10.9-8.1,6.8s-56-10.7-56-10.7L384.4,518.9z"/>
<path class="st1" d="M93.5,410.5c3.3-26.7,19.9-53,45.3-61.6c-10,27.5-10,57.6,0,85c3.9,10.6,9.4,21.9,5.7,32.6
	c-2.3,6.6-7.9,11.7-14.1,14.9c-6.3,3.2-13.2,4.7-20.1,6.2l-1.3,1.1C98,464,90.1,437.1,93.5,410.5z"/>
<path class="st2" d="M139,349.3c-14.8,16.6-24,37.4-26.3,59.6c-0.6,4.8-0.4,9.6,0.5,14.3c1,4.6,3.3,8.7,6.5,12.1
	c2.9,3.2,6.3,6.2,8.4,10.1c2.1,4,2.4,8.8,0.8,13.1c-1.9,5.3-5.5,9.6-9.2,13.7c-4.1,4.6-8.5,9.2-10.2,15.3c-0.2,0.7-1.3,0.4-1.1-0.4
	c3.1-10.5,13.3-16.5,18.1-26c2.3-4.4,3.2-9.6,1.1-14.2c-1.9-4.1-5.3-7.1-8.3-10.4c-3.2-3.3-5.5-7.3-6.8-11.6
	c-1.2-4.6-1.5-9.4-1.1-14.2c0.8-10.7,3.4-21.3,7.5-31.2c4.6-11.4,11.2-21.9,19.4-31C138.7,347.9,139.5,348.8,139,349.3L139,349.3z"
	/>
<path class="st2" d="M113,401.7c-7.6-1.8-12.7-8.9-12.1-16.6c0.1-0.8,1.2-0.7,1.2,0.1c-0.6,7.2,4.2,13.8,11.3,15.5
	C114.1,400.8,113.7,401.9,113,401.7z"/>
<path class="st2" d="M118,433.9c6.6-3.9,11.5-10.2,13.7-17.6c0.2-0.7,1.3-0.4,1.1,0.4c-2.3,7.7-7.4,14.2-14.3,18.3
	C117.9,435.3,117.3,434.3,118,433.9L118,433.9z"/>
<path class="st2" d="M124.6,369.2c2.7,1.3,5.9,1.1,8.5-0.4c0.7-0.4,1.2,0.7,0.5,1.1c-2.9,1.7-6.4,1.9-9.4,0.5
	c-0.3-0.1-0.5-0.4-0.4-0.7C123.9,369.3,124.3,369.1,124.6,369.2L124.6,369.2z"/>
<path class="st1" d="M216.3,396.5c-0.4,0.3-0.8,0.5-1.2,0.8c-5.4,3.5-10.4,7.5-15.1,11.8c-0.4,0.3-0.7,0.7-1.1,1
	c-11.3,10.6-20.4,23.2-27.1,37.1c-2.6,5.5-4.9,11.3-6.6,17.2c-2.5,8.1-4.5,17.1-9.3,23.8c-0.5,0.7-1,1.4-1.6,2h-43.8
	c-0.1,0-0.2-0.1-0.3-0.1l-1.8,0.1c0.1-0.3,0.1-0.6,0.2-0.9c0-0.2,0.1-0.4,0.1-0.5c0-0.1,0.1-0.2,0.1-0.3c0,0,0-0.1,0-0.1
	c0-0.1,0.1-0.2,0.1-0.3c0.4-1.8,0.9-3.6,1.4-5.4c0,0,0,0,0,0c3.6-13.6,8.4-27.1,15-39.4c0.2-0.4,0.4-0.8,0.6-1.1
	c3-5.5,6.5-10.8,10.4-15.8c2.1-2.7,4.4-5.3,6.8-7.8c6.2-6.4,13.4-11.8,21.3-15.9c15.7-8.3,33.9-11.5,50.7-6.4
	C215.5,396.2,215.9,396.3,216.3,396.5z"/>
<path class="st2" d="M216.2,397c-21.8,4.3-41.7,15.4-56.9,31.7c-3.3,3.4-6.1,7.4-8.2,11.7c-1.9,4.3-2.6,9-2.1,13.6
	c0.4,4.3,1.3,8.7,0.7,13.1c-0.7,4.5-3.4,8.5-7.2,10.9c-4.7,3.1-10.2,4.4-15.6,5.4c-6,1.2-12.3,2.3-17.4,6c-0.6,0.5-1.3-0.5-0.7-1
	c8.8-6.6,20.5-5.2,30.1-9.8c4.5-2.2,8.3-5.7,9.4-10.7c1-4.4,0-8.9-0.4-13.3c-0.6-4.5,0-9.1,1.6-13.4c1.9-4.4,4.5-8.5,7.7-12
	c7.1-8.1,15.5-14.9,24.8-20.4c10.6-6.3,22.1-10.7,34.2-13.1C216.9,395.7,216.9,396.9,216.2,397z"/>
<path class="st2" d="M163.9,423.2c-4.9-6-4.8-14.7,0.4-20.6c0.5-0.6,1.4,0.2,0.9,0.8c-4.8,5.4-4.9,13.6-0.3,19.1
	C165.3,423.1,164.4,423.8,163.9,423.2L163.9,423.2z"/>
<path class="st2" d="M148.5,451.9c7.7,0.8,15.3-1.3,21.5-5.8c0.6-0.5,1.3,0.5,0.7,1c-6.4,4.8-14.5,6.9-22.4,6
	C147.6,453,147.8,451.8,148.5,451.9L148.5,451.9z"/>
<path class="st2" d="M192.7,404.2c1.4,2.7,4.1,4.5,7.1,4.8c0.8,0.1,0.5,1.2-0.2,1.2c-3.3-0.4-6.3-2.3-7.8-5.3
	c-0.2-0.3-0.1-0.6,0.1-0.8C192.2,403.9,192.5,404,192.7,404.2L192.7,404.2z"/>
<path class="st1" d="M446.9,587.3c1.3-10.3,7.7-20.5,17.6-23.9c-3.9,10.6-3.9,22.3,0,33c1.5,4.1,3.6,8.5,2.2,12.6
	c-1,2.6-3,4.6-5.5,5.8c-2.5,1.1-5.1,1.9-7.8,2.4l-0.5,0.4C448.7,608,445.7,597.6,446.9,587.3z"/>
<path class="st2" d="M464.6,563.6c-5.7,6.4-9.3,14.5-10.2,23.1c-0.2,1.8-0.2,3.7,0.2,5.5c0.4,1.8,1.3,3.4,2.5,4.7
	c1.2,1.2,2.3,2.5,3.3,3.9c0.8,1.6,0.9,3.4,0.3,5.1c-0.8,2-2,3.8-3.6,5.3c-1.6,1.8-3.3,3.6-4,5.9c-0.1,0.3-0.5,0.1-0.4-0.1
	c1.2-4.1,5.1-6.4,7-10.1c1-1.7,1.1-3.7,0.4-5.5c-0.9-1.5-1.9-2.9-3.2-4c-1.2-1.3-2.1-2.8-2.6-4.5c-0.4-1.8-0.6-3.7-0.4-5.5
	c0.3-4.2,1.3-8.2,2.9-12.1c1.8-4.4,4.3-8.5,7.5-12C464.5,563,464.8,563.4,464.6,563.6L464.6,563.6z"/>
<path class="st2" d="M454.5,583.9c-2.9-0.7-4.9-3.4-4.7-6.4c0-0.3,0.5-0.3,0.5,0c-0.2,2.8,1.6,5.3,4.4,6
	C455,583.5,454.8,584,454.5,583.9L454.5,583.9z"/>
<path class="st2" d="M456.5,596.3c2.6-1.5,4.5-4,5.3-6.8c0.1-0.3,0.5-0.1,0.4,0.1c-0.9,3-2.9,5.5-5.5,7.1
	C456.4,596.9,456.2,596.5,456.5,596.3L456.5,596.3z"/>
<path class="st2" d="M459,571.3c1.1,0.5,2.3,0.4,3.3-0.2c0.3-0.2,0.5,0.3,0.2,0.4c-1.1,0.7-2.5,0.7-3.7,0.2c-0.1,0-0.2-0.2-0.1-0.3
	C458.8,571.3,458.9,571.3,459,571.3L459,571.3z"/>
<path class="st1" d="M494.6,581.9c-0.2,0.1-0.3,0.2-0.5,0.3c-2.1,1.4-4,2.9-5.9,4.6c-0.1,0.1-0.3,0.3-0.4,0.4
	c-4.4,4.1-7.9,9-10.5,14.4c-1,2.2-1.9,4.4-2.6,6.7c-0.9,3.2-1.7,6.6-3.6,9.2c-0.2,0.3-0.4,0.5-0.6,0.8h-17c0,0-0.1,0-0.1-0.1l-0.7,0
	c0-0.1,0.1-0.2,0.1-0.4c0-0.1,0-0.1,0.1-0.2c0,0,0-0.1,0-0.1c0,0,0,0,0,0c0,0,0-0.1,0-0.1c0.2-0.7,0.3-1.4,0.5-2.1l0,0
	c1.3-5.3,3.3-10.4,5.8-15.3c0.1-0.1,0.2-0.3,0.2-0.4c1.2-2.1,2.5-4.2,4-6.1c0.8-1.1,1.7-2.1,2.6-3c2.4-2.5,5.2-4.6,8.2-6.2
	c6.1-3.2,13.1-4.4,19.7-2.5C494.2,581.7,494.4,581.8,494.6,581.9z"/>
<path class="st2" d="M494.5,582.1c-8.5,1.7-16.2,6-22,12.3c-1.3,1.3-2.4,2.9-3.2,4.5c-0.7,1.7-1,3.5-0.8,5.3
	c0.3,1.7,0.4,3.4,0.3,5.1c-0.3,1.7-1.3,3.3-2.8,4.2c-1.9,1.1-3.9,1.8-6.1,2.1c-2.3,0.4-4.8,0.9-6.7,2.3c-0.2,0.2-0.5-0.2-0.3-0.4
	c3.4-2.5,8-2,11.7-3.8c1.8-0.7,3.1-2.3,3.7-4.1c0.2-1.7,0.2-3.5-0.2-5.2c-0.2-1.8,0-3.5,0.6-5.2c0.7-1.7,1.7-3.3,3-4.6
	c2.8-3.1,6-5.8,9.6-7.9c4.1-2.4,8.6-4.2,13.2-5.1C494.8,581.6,494.8,582,494.5,582.1z"/>
<path class="st2" d="M474.2,592.2c-1.9-2.3-1.9-5.7,0.1-8c0.2-0.2,0.5,0.1,0.4,0.3c-1.9,2.1-1.9,5.3-0.1,7.4
	C474.8,592.2,474.4,592.4,474.2,592.2L474.2,592.2z"/>
<path class="st2" d="M468.3,603.3c3,0.3,5.9-0.5,8.3-2.3c0.2-0.2,0.5,0.2,0.3,0.4c-2.5,1.8-5.6,2.7-8.7,2.3
	C467.9,603.7,468,603.3,468.3,603.3L468.3,603.3z"/>
<path class="st2" d="M485.4,584.9c0.5,1,1.6,1.7,2.7,1.9c0.3,0,0.2,0.5-0.1,0.5c-1.3-0.1-2.4-0.9-3-2c-0.1-0.1,0-0.2,0.1-0.3
	C485.2,584.7,485.3,584.8,485.4,584.9L485.4,584.9z"/>
<path class="st1" d="M738.8,367.7c-5.1-41-30.5-81.4-69.6-94.8c15.4,42.2,15.4,88.5,0,130.7c-6,16.3-14.4,33.7-8.7,50.1
	c3.5,10.2,12.1,18,21.7,22.9c9.6,4.9,20.3,7.2,30.8,9.5l2.1,1.7C731.8,450,743.9,408.7,738.8,367.7z"/>
<path class="st2" d="M668.8,273.7c22.8,25.5,36.9,57.6,40.5,91.6c0.7,7.3,0.8,14.8-0.8,21.9c-1.6,7-5.1,13.4-10,18.6
	c-4.5,5-9.7,9.5-12.9,15.5c-3.4,6.3-3.5,13.4-1.2,20.1c2.8,8.2,8.5,14.8,14.2,21.1c6.3,7,13,14.2,15.7,23.5c0.3,1.1,2.1,0.6,1.7-0.6
	c-4.7-16.2-20.4-25.4-27.9-39.9c-3.5-6.8-5-14.7-1.7-21.9c2.9-6.3,8.2-11,12.8-15.9c4.8-5.2,8.5-11,10.5-17.9
	c2-7.1,2.2-14.6,1.6-21.8c-1.3-16.5-5.2-32.7-11.5-48c-7.1-17.5-17.2-33.6-29.8-47.7C669.2,271.4,668,272.8,668.8,273.7L668.8,273.7
	z"/>
<path class="st2" d="M708.7,354.2c11.6-2.8,19.5-13.6,18.6-25.6c-0.1-1.2-1.9-1.1-1.8,0.1c0.9,11.1-6.5,21.2-17.3,23.8
	C707,352.8,707.6,354.5,708.7,354.2L708.7,354.2z"/>
<path class="st2" d="M701.1,403.6c-10.2-6.1-17.7-15.7-21-27.1c-0.3-1.1-2.1-0.6-1.7,0.6c3.5,11.8,11.3,21.9,21.9,28.2
	C701.2,405.9,702.1,404.2,701.1,403.6z"/>
<path class="st2" d="M690.9,304.3c-4.2,2-9.1,1.7-13.1-0.7c-1-0.6-1.8,1-0.8,1.6c4.4,2.6,9.8,2.9,14.5,0.8c0.5-0.2,0.7-0.7,0.6-1.2
	C691.9,304.4,691.4,304.1,690.9,304.3z"/>
<path class="st1" d="M550,346.1c0.6,0.4,1.2,0.8,1.8,1.2c8.2,5.4,16,11.5,23.3,18.2c0.6,0.5,1.1,1,1.7,1.6
	c17.3,16.3,31.4,35.6,41.7,57c4.1,8.5,7.5,17.4,10.2,26.4c3.8,12.5,6.9,26.3,14.3,36.6c0.8,1.1,1.6,2.1,2.5,3.1h67.4
	c0.2-0.1,0.3-0.1,0.5-0.2l2.7,0.1c-0.1-0.5-0.2-1-0.3-1.4c-0.1-0.3-0.1-0.6-0.2-0.8c0-0.2-0.1-0.4-0.1-0.5c0-0.1,0-0.1,0-0.2
	c0-0.2-0.1-0.3-0.1-0.5c-0.7-2.8-1.4-5.5-2.1-8.3c0,0,0,0,0,0c-5.5-21-12.8-41.6-23.1-60.5c-0.3-0.6-0.6-1.2-1-1.7
	c-4.7-8.5-10-16.6-16-24.2c-3.3-4.2-6.8-8.2-10.5-12c-9.6-9.8-20.6-18.1-32.7-24.5c-24.2-12.8-52.1-17.6-78-9.9
	C551.3,345.7,550.6,345.9,550,346.1z"/>
<path class="st2" d="M550.1,347c33.5,6.7,64.1,23.7,87.4,48.8c5,5.4,9.5,11.3,12.6,18c2.9,6.6,4,13.8,3.2,20.9
	c-0.6,6.7-2,13.4-1,20.1c1.1,7.1,5.3,12.8,11.1,16.8c7.2,4.8,15.7,6.7,24,8.3c9.3,1.8,19,3.5,26.7,9.3c0.9,0.7,2-0.8,1-1.5
	c-13.5-10.1-31.6-8-46.3-15.1c-6.9-3.3-12.8-8.7-14.5-16.4c-1.5-6.7-0.1-13.7,0.6-20.4c0.7-7.1,0.2-13.9-2.4-20.6
	c-2.7-6.8-7-12.9-11.8-18.4c-11-12.4-23.8-23-38.1-31.4c-16.2-9.7-34-16.5-52.5-20.2C549.1,345,549,346.8,550.1,347L550.1,347z"/>
<path class="st2" d="M630.5,387.3c7.6-9.3,7.3-22.6-0.6-31.6c-0.8-0.9-2.2,0.3-1.4,1.2c7.4,8.3,7.6,20.8,0.5,29.4
	C628.3,387.1,629.8,388.2,630.5,387.3L630.5,387.3z"/>
<path class="st2" d="M654.1,431.3c-11.8,1.3-23.6-1.9-33.1-9c-0.9-0.7-2,0.8-1,1.5c9.9,7.3,22.2,10.6,34.5,9.3
	C655.6,433,655.3,431.2,654.1,431.3L654.1,431.3z"/>
<path class="st2" d="M586.2,358.1c-2.2,4.1-6.2,6.9-10.9,7.4c-1.2,0.1-0.8,1.9,0.3,1.8c5.1-0.5,9.6-3.6,12-8.1
	c0.3-0.4,0.2-1-0.2-1.3C587.1,357.6,586.5,357.7,586.2,358.1L586.2,358.1z"/>
<path class="st3" d="M817.3,491.2H1c-0.6,0-1-0.4-1-1s0.4-1,1-1h816c0.6,0,1,0.4,1,1S817.9,491.2,817.3,491.2z"/>
<path class="st3" d="M286.3,579.2H106c-0.6,0-1-0.4-1-1s0.4-1,1-1h180c0.6,0,1,0.4,1,1S286.9,579.2,286.3,579.2z"/>
<path class="st3" d="M569.3,618.2H389c-0.6,0-1-0.4-1-1s0.4-1,1-1h180c0.6,0,1,0.4,1,1S569.9,618.2,569.3,618.2z"/>
<path class="st3" d="M739.3,578.2H559c-0.6,0-1-0.4-1-1s0.4-1,1-1h180c0.6,0,1,0.4,1,1S739.9,578.2,739.3,578.2z"/>
<path id="ea820f77-130a-433d-b966-41522e2706cd-38" class="st4" d="M333.3,540.2c-11.2,0-21.5-1.1-29.6-3.6
	c-9.7-3-15.8-7.9-18.1-14.5c-2.2-5.7-1.2-12.2,2.7-16.9c14.3-18.7,64-23.9,70.7-24.6l13.5-25.6c0.9-6.1-3.2-10.7,3.8-10.9l83.7-1.1
	c7-0.1,5,4.2,6.2,10.1l12.8,22.8L424.1,499l8.3,20.2l-0.5,0.3C415.8,528.9,369.6,540.2,333.3,540.2z"/>
<path id="e2cf09bf-0dcf-4d32-bd8b-d83345e69099-39" class="st4" d="M471.4,476.8c0,0,76.7-8.8,71.7,26.3s-63.3,60-151.7,0l10-17.6
	c0,0,32.9-1.6,52.9-10.4L471.4,476.8z"/>
<path id="e394c6e3-5a9b-4b6a-ab2c-d395b6ec401d-40" class="st0" d="M362.9,317.8c0,0-14.6-2.6-18.5,19.9
	c-4,22.5-10.3,75.9-10.3,75.9l-19.8,68.5c-6.8,3.6-9.4,12-5.8,18.8c3.6,6.8,12,9.4,18.8,5.8c5.9-3.1,8.7-10,6.8-16.4l26.5-72.7
	l5-62.6v-32.8C365.5,320.3,364.5,318.6,362.9,317.8z"/>
<path id="bce87157-538b-4a9f-a71d-b40a66ba2871-41" class="st0" d="M465.4,317.8c0,0,14.6-2.6,18.5,19.9c4,22.5,10.3,75.9,10.3,75.9
	l19.8,68.5c6.8,3.6,9.4,12,5.8,18.8c-3.6,6.8-12,9.4-18.8,5.8c-5.9-3.1-8.7-10-6.8-16.4l-26.5-72.7l-5-62.6v-32.8
	C462.8,320.3,463.8,318.6,465.4,317.8z"/>
<path class="st5" d="M464.3,299.2l-27.6-10.3l-53.4-0.7l-23,11l6.5,37.1c0,0-13,22.1,1.3,44.2l3.2,78.7c0,0,51.5,29.9,95-6
	l-9.8-73.2c0,0,16.4-34,3.7-46.6L464.3,299.2z"/>
<path class="st5" d="M453.1,310.7l11.2-11.5c0,0,24.5,12.9,24,56l-30.9-9.5L453.1,310.7z"/>
<path class="st5" d="M372.8,310.7l-11.9-11.9c0,0-21,16.3-20.5,59.4l28.2-12.5L372.8,310.7z"/>
<path id="fa495a93-2d48-4158-a295-a9de2db8cd68-42" class="st0" d="M450.6,510.4c0,0-8.6-18.1-22.9-9.4s-40.7,23-40.7,23
	s-6.2,10.3,7.3,7.6s56.8-4.8,56.8-4.8L450.6,510.4z"/>
<path class="st4" d="M426.7,187.4c0.1-0.1,0.2-0.2,0.4-0.3c7.7-7.7,9.2-18.6,3.5-24.3c-5.4-5.4-15.5-4.3-23,2.3
	c-6.5-6.2-15.2-7.9-20.8-3.6c-6.5,4.9-6.4,15.9,0.1,24.6c0.4,0.6,0.9,1.2,1.4,1.7c-17.9,6.5-29.7,23.5-29.7,42.5v43.1
	c0,5.3,4.3,9.6,9.6,9.6l0,0h79.7c5.1,0,9.3-4.2,9.3-9.3v-43.4C457.1,210.9,444.9,193.8,426.7,187.4z"/>
<circle class="st6" cx="409.1" cy="240.9" r="37.8"/>
<path class="st4" d="M369.3,217.1c8.6,6,18.9,9.1,29.4,9.1c-3.7,2.6-8,4.3-12.5,5.1c14,3,28.4,3.1,42.4,0.2c3.1-0.5,6.1-1.5,8.9-3
	c2.8-1.6,4.8-4.2,5.5-7.3c0.9-5.3-3.2-10.1-7.5-13.4c-13.3-9.9-30.4-13.3-46.5-9.3c-5.2,1.3-10.4,3.6-13.8,7.8s-4.4,10.6-1.2,14.9
	L369.3,217.1z"/>
<polygon class="st7" points="200.5,165.2 200.5,165.2 200.5,165.2 "/>
<path class="st7" d="M167.1,141.6l1.2-1.6l31.7,23.5c-1.7-5.3-7.8-21.9-17.8-28.6c-12-7.9-20.4-5.5-25,1.4s-3.6,15.6,8.4,23.6
	c10.1,6.7,28.2,5.8,33.5,5.4L167.1,141.6z"/>
<polygon class="st7" points="617.8,43.5 617.8,43.5 617.8,43.5 "/>
<path class="st7" d="M644.8,12.7l1.5,1.4l-26.7,29.1c5.4-1.2,22.6-5.5,30.3-14.8c9.1-11.1,7.6-19.7,1.2-25s-15.2-5.2-24.3,5.9
	c-7.8,9.4-8.7,27.4-8.8,32.7L644.8,12.7z"/>
<polygon class="st7" points="186.9,354.5 186.9,354.5 186.9,354.5 "/>
<path class="st7" d="M213.8,323.7l1.5,1.4l-26.7,29.1c5.4-1.2,22.6-5.5,30.3-14.8c9.1-11.1,7.6-19.7,1.2-25
	c-6.4-5.3-15.2-5.2-24.3,5.9c-7.8,9.4-8.7,27.4-8.8,32.7L213.8,323.7z"/>
<polygon class="st7" points="420.1,82 420.1,82 420.1,82 "/>
<path class="st7" d="M439.7,46.1l1.7,1l-19.8,34.2c5-2.3,20.9-10.3,26.4-21c6.5-12.8,3.1-20.9-4.2-24.6s-15.9-1.8-22.5,11
	c-5.5,10.8-2.6,28.7-1.5,33.9L439.7,46.1z"/>
<polygon class="st7" points="605.1,296 605.1,296 605.1,296 "/>
<path class="st7" d="M624.7,260.1l1.7,1l-19.8,34.2c5-2.3,20.9-10.3,26.4-21c6.5-12.8,3.1-20.9-4.2-24.6s-15.9-1.8-22.5,11
	c-5.5,10.8-2.6,28.7-1.5,33.9L624.7,260.1z"/>
</svg>
